<svg xmlns="http://www.w3.org/2000/svg" width="1024" height="1024" viewBox="0 0 1024 1024" version="1.1"><path d="M 481.500 27.010 C 383.628 34.084, 293.988 67.604, 218.116 125.498 C 202.502 137.413, 188 149.651, 188 150.914 C 188 151.389, 193.850 152.102, 201 152.500 C 208.150 152.898, 214 153.577, 214 154.009 C 214 154.441, 220.075 155.120, 227.500 155.518 C 234.925 155.916, 241 156.589, 241 157.014 C 241 157.439, 248.425 158.115, 257.500 158.515 C 266.575 158.915, 274 159.556, 274 159.940 C 274 160.618, 315.848 163.037, 327.167 163.012 C 330.283 163.006, 332.983 163.410, 333.167 163.912 C 333.350 164.413, 345.200 165.149, 359.500 165.546 C 376.787 166.027, 385.739 166.644, 386.214 167.385 C 387.232 168.977, 637.768 168.977, 638.786 167.385 C 639.261 166.644, 648.213 166.027, 665.500 165.546 C 679.800 165.149, 691.650 164.413, 691.833 163.912 C 692.017 163.410, 694.717 163.006, 697.833 163.012 C 709.152 163.037, 751 160.618, 751 159.940 C 751 159.556, 758.425 158.915, 767.500 158.515 C 776.575 158.115, 784 157.439, 784 157.014 C 784 156.589, 790.075 155.916, 797.500 155.518 C 804.925 155.120, 811 154.441, 811 154.009 C 811 153.577, 816.850 152.898, 824 152.500 C 831.150 152.102, 837 151.389, 837 150.914 C 837 149.651, 822.498 137.413, 806.884 125.498 C 734.515 70.277, 648.328 36.783, 556 28.001 C 540.493 26.526, 496.325 25.938, 481.500 27.010 M 405.750 856.749 C 394.887 856.910, 386 857.419, 386 857.879 C 386 858.340, 374.188 859.043, 359.750 859.442 C 345.313 859.840, 333.350 860.579, 333.167 861.083 C 332.983 861.587, 330.283 861.994, 327.167 861.988 C 315.848 861.963, 274 864.382, 274 865.060 C 274 865.444, 266.575 866.085, 257.500 866.485 C 248.425 866.885, 241 867.561, 241 867.986 C 241 868.411, 234.925 869.084, 227.500 869.482 C 220.075 869.880, 214 870.559, 214 870.991 C 214 871.423, 208.150 872.102, 201 872.500 C 193.850 872.898, 188 873.611, 188 874.086 C 188 876.718, 224.732 905.305, 246.116 919.316 C 313.301 963.334, 387.788 989.180, 470.500 997.174 C 487.264 998.794, 537.736 998.794, 554.500 997.174 C 637.212 989.180, 711.699 963.334, 778.884 919.316 C 800.268 905.305, 837 876.718, 837 874.086 C 837 873.611, 831.150 872.898, 824 872.500 C 816.850 872.102, 811 871.423, 811 870.991 C 811 870.559, 804.925 869.880, 797.500 869.482 C 790.075 869.084, 784 868.411, 784 867.986 C 784 867.561, 776.575 866.885, 767.500 866.485 C 758.425 866.085, 751 865.444, 751 865.060 C 751 864.382, 709.152 861.963, 697.833 861.988 C 694.717 861.994, 692.017 861.587, 691.833 861.083 C 691.650 860.579, 679.688 859.840, 665.250 859.442 C 650.813 859.043, 639 858.400, 639 858.014 C 639 857.628, 624.558 856.995, 606.907 856.606 L 574.814 855.900 566.657 859.393 C 550.276 866.405, 528.839 871, 512.500 871 C 496.208 871, 474.723 866.405, 458.459 859.442 C 450.580 856.070, 450.166 856.005, 437.959 856.228 C 431.106 856.353, 416.613 856.587, 405.750 856.749" stroke="none" fill="#19d499" fill-rule="evenodd"/><path d="M 101.383 252.750 C 60.095 317.889, 35.554 390.539, 27.826 470.500 C 26.206 487.264, 26.206 537.736, 27.826 554.500 C 37.683 656.491, 74.897 746.573, 139.265 824.255 C 144.166 830.170, 148.587 834.755, 149.088 834.446 C 149.590 834.136, 150 832.784, 150 831.441 C 150 830.098, 150.430 829, 150.955 829 C 151.480 829, 152.220 827.313, 152.599 825.250 C 152.978 823.188, 153.708 821.227, 154.220 820.894 C 154.732 820.561, 155.402 818.423, 155.707 816.144 C 156.013 813.865, 156.649 812, 157.120 812 C 157.591 812, 158.264 810.200, 158.616 808 C 158.968 805.800, 159.597 804, 160.015 804 C 160.432 804, 161.325 801.075, 162 797.500 C 162.675 793.925, 163.574 791, 164 791 C 164.425 791, 165.077 788.975, 165.448 786.500 C 165.819 784.025, 166.487 782, 166.932 782 C 167.378 782, 168.041 779.750, 168.406 777 C 168.770 774.250, 169.445 772, 169.906 772 C 170.366 772, 171.041 769.750, 171.406 767 C 171.770 764.250, 172.452 762, 172.919 762 C 173.387 762, 174.079 759.525, 174.457 756.500 C 174.835 753.475, 175.562 751, 176.072 751 C 176.582 751, 177 749.650, 177 748 C 177 746.350, 177.418 745, 177.928 745 C 178.438 745, 179.174 742.413, 179.563 739.250 C 179.952 736.087, 180.656 733.251, 181.128 732.946 C 181.599 732.641, 182.282 730.166, 182.646 727.446 C 183.010 724.726, 183.673 722.258, 184.120 721.962 C 184.567 721.666, 185.241 718.741, 185.618 715.462 C 185.995 712.183, 186.694 709.243, 187.172 708.928 C 187.651 708.613, 188.323 705.351, 188.666 701.678 C 189.009 698.005, 189.674 695, 190.145 695 C 190.615 695, 191 693.875, 191 692.500 C 191 691.125, 191.392 690, 191.871 690 C 192.350 690, 193.056 686.400, 193.440 682 C 193.823 677.600, 194.557 674, 195.069 674 C 195.581 674, 196 672.013, 196 669.583 C 196 667.154, 196.432 665.017, 196.960 664.833 C 197.488 664.650, 198.230 660.675, 198.609 656 C 198.989 651.325, 199.674 647.254, 200.131 646.952 C 200.589 646.651, 201.264 641.814, 201.632 636.202 C 202 630.591, 202.683 626, 203.150 626 C 203.618 626, 204 623.750, 204 621 C 204 618.250, 204.385 616, 204.855 616 C 205.325 616, 206.027 609.813, 206.416 602.250 C 206.805 594.688, 207.545 588.350, 208.062 588.167 C 208.578 587.983, 209 582.248, 209 575.417 C 209 567.806, 209.387 563, 210 563 C 210.619 563, 211 557.667, 211 549 C 211 540.333, 211.381 535, 212 535 C 212.576 535, 213 531.891, 213 527.672 C 213 521.362, 212.460 519.100, 209.111 511.378 C 186.487 459.217, 152.821 368.219, 125.270 284.758 C 117.146 260.150, 110.267 240.013, 109.982 240.008 C 109.697 240.004, 105.828 245.738, 101.383 252.750 M 899.730 284.758 C 872.179 368.219, 838.513 459.217, 815.889 511.378 C 812.540 519.100, 812 521.362, 812 527.672 C 812 531.891, 812.424 535, 813 535 C 813.619 535, 814 540.333, 814 549 C 814 557.667, 814.381 563, 815 563 C 815.613 563, 816 567.806, 816 575.417 C 816 582.248, 816.422 587.983, 816.938 588.167 C 817.455 588.350, 818.195 594.688, 818.584 602.250 C 818.973 609.813, 819.675 616, 820.145 616 C 820.615 616, 821 618.250, 821 621 C 821 623.750, 821.382 626, 821.850 626 C 822.317 626, 823 630.591, 823.368 636.202 C 823.736 641.814, 824.411 646.651, 824.869 646.952 C 825.326 647.254, 826.011 651.325, 826.391 656 C 826.770 660.675, 827.512 664.650, 828.040 664.833 C 828.568 665.017, 829 667.154, 829 669.583 C 829 672.013, 829.419 674, 829.931 674 C 830.443 674, 831.177 677.600, 831.560 682 C 831.944 686.400, 832.650 690, 833.129 690 C 833.608 690, 834 691.125, 834 692.500 C 834 693.875, 834.385 695, 834.855 695 C 835.326 695, 835.991 698.005, 836.334 701.678 C 836.677 705.351, 837.349 708.613, 837.828 708.928 C 838.306 709.243, 839.005 712.183, 839.382 715.462 C 839.759 718.741, 840.433 721.666, 840.880 721.962 C 841.327 722.258, 841.990 724.726, 842.354 727.446 C 842.718 730.166, 843.401 732.641, 843.872 732.946 C 844.344 733.251, 845.048 736.087, 845.437 739.250 C 845.826 742.413, 846.562 745, 847.072 745 C 847.582 745, 848 746.350, 848 748 C 848 749.650, 848.418 751, 848.928 751 C 849.438 751, 850.165 753.475, 850.543 756.500 C 850.921 759.525, 851.613 762, 852.081 762 C 852.548 762, 853.230 764.250, 853.594 767 C 853.959 769.750, 854.634 772, 855.094 772 C 855.555 772, 856.230 774.250, 856.594 777 C 856.959 779.750, 857.622 782, 858.068 782 C 858.513 782, 859.181 784.025, 859.552 786.500 C 859.923 788.975, 860.575 791, 861 791 C 861.426 791, 862.325 793.925, 863 797.500 C 863.675 801.075, 864.568 804, 864.985 804 C 865.403 804, 866.032 805.800, 866.384 808 C 866.736 810.200, 867.409 812, 867.880 812 C 868.351 812, 868.987 813.865, 869.293 816.144 C 869.598 818.423, 870.268 820.561, 870.780 820.894 C 871.292 821.227, 872.022 823.188, 872.401 825.250 C 872.780 827.313, 873.520 829, 874.045 829 C 874.570 829, 875 830.098, 875 831.441 C 875 832.784, 875.410 834.136, 875.912 834.446 C 876.413 834.755, 880.834 830.170, 885.735 824.255 C 950.103 746.573, 987.317 656.491, 997.174 554.500 C 998.794 537.736, 998.794 487.264, 997.174 470.500 C 989.446 390.539, 964.905 317.889, 923.617 252.750 C 919.172 245.738, 915.303 240.004, 915.018 240.008 C 914.733 240.013, 907.854 260.150, 899.730 284.758" stroke="none" fill="#c12c9c" fill-rule="evenodd"/><path d="M 471 2.076 C 364.618 11.310, 265.748 51.832, 184.500 119.500 C 178.450 124.539, 171.145 130.875, 168.266 133.581 L 163.033 138.500 173.888 167 C 245.939 356.173, 313.908 479.970, 384.464 550.538 C 418.954 585.033, 451.363 604.649, 486.312 612.184 C 500.759 615.298, 524.241 615.298, 538.688 612.184 C 573.637 604.649, 606.046 585.033, 640.536 550.538 C 711.092 479.970, 779.061 356.173, 851.112 167 L 861.967 138.500 856.734 133.581 C 853.855 130.875, 846.550 124.539, 840.500 119.500 C 807.626 92.121, 774.800 70.991, 735.555 51.947 C 682.083 26, 630.211 10.974, 568 3.410 C 552.178 1.486, 487.968 0.603, 471 2.076 M 481.500 27.010 C 383.628 34.084, 293.988 67.604, 218.116 125.498 C 202.502 137.413, 188 149.651, 188 150.914 C 188 151.389, 193.850 152.102, 201 152.500 C 208.150 152.898, 214 153.577, 214 154.009 C 214 154.441, 220.075 155.120, 227.500 155.518 C 234.925 155.916, 241 156.589, 241 157.014 C 241 157.439, 248.425 158.115, 257.500 158.515 C 266.575 158.915, 274 159.556, 274 159.940 C 274 160.618, 315.848 163.037, 327.167 163.012 C 330.283 163.006, 332.983 163.410, 333.167 163.912 C 333.350 164.413, 345.200 165.149, 359.500 165.546 C 376.787 166.027, 385.739 166.644, 386.214 167.385 C 387.232 168.977, 637.768 168.977, 638.786 167.385 C 639.261 166.644, 648.213 166.027, 665.500 165.546 C 679.800 165.149, 691.650 164.413, 691.833 163.912 C 692.017 163.410, 694.717 163.006, 697.833 163.012 C 709.152 163.037, 751 160.618, 751 159.940 C 751 159.556, 758.425 158.915, 767.500 158.515 C 776.575 158.115, 784 157.439, 784 157.014 C 784 156.589, 790.075 155.916, 797.500 155.518 C 804.925 155.120, 811 154.441, 811 154.009 C 811 153.577, 816.850 152.898, 824 152.500 C 831.150 152.102, 837 151.389, 837 150.914 C 837 149.651, 822.498 137.413, 806.884 125.498 C 734.515 70.277, 648.328 36.783, 556 28.001 C 540.493 26.526, 496.325 25.938, 481.500 27.010 M 96.783 213.653 C 52.384 274.634, 20.391 351.581, 7.550 428.270 C 2.220 460.104, 1.523 469.850, 1.523 512.500 C 1.523 555.150, 2.220 564.896, 7.550 596.730 C 21.326 679.003, 54.846 756.369, 105.587 823 C 184.217 926.255, 299.876 995.952, 428.270 1017.450 C 460.104 1022.780, 469.850 1023.477, 512.500 1023.477 C 555.150 1023.477, 564.896 1022.780, 596.730 1017.450 C 679.003 1003.674, 756.369 970.154, 823 919.413 C 926.255 840.783, 995.952 725.124, 1017.450 596.730 C 1022.780 564.896, 1023.477 555.150, 1023.477 512.500 C 1023.477 469.850, 1022.780 460.104, 1017.450 428.270 C 1005.515 356.988, 978.410 288.527, 938.358 228.500 C 933.220 220.800, 927.951 213.176, 926.649 211.558 L 924.282 208.616 919.641 223.216 C 917.088 231.247, 915 238.131, 915 238.516 C 915 238.900, 918.759 245.128, 923.353 252.357 C 964.803 317.577, 989.427 390.341, 997.174 470.500 C 998.794 487.264, 998.794 537.736, 997.174 554.500 C 987.317 656.491, 950.103 746.573, 885.735 824.255 C 880.834 830.170, 876.413 834.755, 875.912 834.446 C 875.410 834.136, 875 832.784, 875 831.441 C 875 830.098, 874.570 829, 874.045 829 C 873.520 829, 872.780 827.312, 872.401 825.250 C 872.022 823.188, 871.292 821.227, 870.780 820.894 C 870.268 820.561, 869.598 818.423, 869.293 816.144 C 868.987 813.865, 868.351 812, 867.880 812 C 867.409 812, 866.736 810.200, 866.384 808 C 866.032 805.800, 865.403 804, 864.985 804 C 864.568 804, 863.675 801.075, 863 797.500 C 862.325 793.925, 861.426 791, 861 791 C 860.575 791, 859.923 788.975, 859.552 786.500 C 859.181 784.025, 858.513 782, 858.068 782 C 857.622 782, 856.959 779.750, 856.594 777 C 856.230 774.250, 855.555 772, 855.094 772 C 854.634 772, 853.959 769.750, 853.594 767 C 853.230 764.250, 852.548 762, 852.081 762 C 851.613 762, 850.921 759.525, 850.543 756.500 C 850.165 753.475, 849.438 751, 848.928 751 C 848.418 751, 848 749.650, 848 748 C 848 746.350, 847.582 745, 847.072 745 C 846.562 745, 845.826 742.413, 845.437 739.250 C 845.048 736.087, 844.344 733.251, 843.872 732.946 C 843.401 732.641, 842.718 730.166, 842.354 727.446 C 841.990 724.726, 841.327 722.258, 840.880 721.962 C 840.433 721.666, 839.759 718.741, 839.382 715.462 C 839.005 712.183, 838.306 709.243, 837.828 708.928 C 837.349 708.613, 836.677 705.351, 836.334 701.678 C 835.991 698.005, 835.326 695, 834.855 695 C 834.385 695, 834 693.875, 834 692.500 C 834 691.125, 833.608 690, 833.129 690 C 832.650 690, 831.944 686.400, 831.560 682 C 831.177 677.600, 830.443 674, 829.931 674 C 829.419 674, 829 672.013, 829 669.583 C 829 667.154, 828.568 665.017, 828.040 664.833 C 827.512 664.650, 826.770 660.675, 826.391 656 C 826.011 651.325, 825.326 647.254, 824.869 646.952 C 824.411 646.651, 823.736 641.814, 823.368 636.202 C 823 630.591, 822.317 626, 821.850 626 C 821.382 626, 821 623.750, 821 621 C 821 618.250, 820.615 616, 820.145 616 C 819.675 616, 818.973 609.813, 818.584 602.250 C 818.195 594.688, 817.455 588.350, 816.938 588.167 C 816.422 587.983, 816 582.248, 816 575.417 C 816 567.806, 815.613 563, 815 563 C 814.381 563, 814 557.667, 814 549 C 814 540.780, 813.606 535, 813.046 535 C 812.521 535, 811.958 532.021, 811.796 528.380 L 811.500 521.759 804.566 537.630 C 731.694 704.410, 655.051 812.884, 582.810 851.483 L 574.952 855.682 593.726 856.338 C 604.052 856.699, 618.462 856.996, 625.750 856.997 C 633.038 856.999, 639 857.386, 639 857.858 C 639 858.330, 650.813 859.043, 665.250 859.442 C 679.688 859.840, 691.650 860.579, 691.833 861.083 C 692.017 861.587, 694.717 861.994, 697.833 861.988 C 709.152 861.963, 751 864.382, 751 865.060 C 751 865.444, 758.425 866.085, 767.500 866.485 C 776.575 866.885, 784 867.561, 784 867.986 C 784 868.411, 790.075 869.084, 797.500 869.482 C 804.925 869.880, 811 870.559, 811 870.991 C 811 871.423, 816.850 872.102, 824 872.500 C 831.150 872.898, 837 873.611, 837 874.086 C 837 876.718, 800.268 905.305, 778.884 919.316 C 711.699 963.334, 637.212 989.180, 554.500 997.174 C 537.736 998.794, 487.264 998.794, 470.500 997.174 C 387.788 989.180, 313.301 963.334, 246.116 919.316 C 224.732 905.305, 188 876.718, 188 874.086 C 188 873.611, 193.850 872.898, 201 872.500 C 208.150 872.102, 214 871.423, 214 870.991 C 214 870.559, 220.075 869.880, 227.500 869.482 C 234.925 869.084, 241 868.411, 241 867.986 C 241 867.561, 248.425 866.885, 257.500 866.485 C 266.575 866.085, 274 865.444, 274 865.060 C 274 864.382, 315.848 861.963, 327.167 861.988 C 330.283 861.994, 332.983 861.587, 333.167 861.083 C 333.350 860.579, 345.313 859.840, 359.750 859.442 C 374.187 859.043, 386 858.330, 386 857.858 C 386 857.386, 391.962 856.999, 399.250 856.997 C 406.538 856.996, 420.948 856.699, 431.274 856.338 L 450.048 855.682 442.190 851.483 C 410.219 834.401, 373.990 800.157, 340.703 755.555 C 301.379 702.865, 259.378 626.760, 220.434 537.630 L 213.500 521.759 213.204 528.380 C 213.042 532.021, 212.479 535, 211.954 535 C 211.394 535, 211 540.780, 211 549 C 211 557.667, 210.619 563, 210 563 C 209.387 563, 209 567.806, 209 575.417 C 209 582.248, 208.578 587.983, 208.062 588.167 C 207.545 588.350, 206.805 594.688, 206.416 602.250 C 206.027 609.813, 205.325 616, 204.855 616 C 204.385 616, 204 618.250, 204 621 C 204 623.750, 203.618 626, 203.150 626 C 202.683 626, 202 630.591, 201.632 636.202 C 201.264 641.814, 200.589 646.651, 200.131 646.952 C 199.674 647.254, 198.989 651.325, 198.609 656 C 198.230 660.675, 197.488 664.650, 196.960 664.833 C 196.432 665.017, 196 667.154, 196 669.583 C 196 672.013, 195.581 674, 195.069 674 C 194.557 674, 193.823 677.600, 193.440 682 C 193.056 686.400, 192.350 690, 191.871 690 C 191.392 690, 191 691.125, 191 692.500 C 191 693.875, 190.615 695, 190.145 695 C 189.674 695, 189.009 698.005, 188.666 701.678 C 188.323 705.351, 187.651 708.613, 187.172 708.928 C 186.694 709.243, 185.995 712.183, 185.618 715.462 C 185.241 718.741, 184.567 721.666, 184.120 721.962 C 183.673 722.258, 183.010 724.726, 182.646 727.446 C 182.282 730.166, 181.599 732.641, 181.128 732.946 C 180.656 733.251, 179.952 736.087, 179.563 739.250 C 179.174 742.413, 178.438 745, 177.928 745 C 177.418 745, 177 746.350, 177 748 C 177 749.650, 176.582 751, 176.072 751 C 175.562 751, 174.835 753.475, 174.457 756.500 C 174.079 759.525, 173.387 762, 172.919 762 C 172.452 762, 171.770 764.250, 171.406 767 C 171.041 769.750, 170.366 772, 169.906 772 C 169.445 772, 168.770 774.250, 168.406 777 C 168.041 779.750, 167.378 782, 166.932 782 C 166.487 782, 165.819 784.025, 165.448 786.500 C 165.077 788.975, 164.425 791, 164 791 C 163.574 791, 162.675 793.925, 162 797.500 C 161.325 801.075, 160.432 804, 160.015 804 C 159.597 804, 158.968 805.800, 158.616 808 C 158.264 810.200, 157.591 812, 157.120 812 C 156.649 812, 156.013 813.865, 155.707 816.144 C 155.402 818.423, 154.732 820.561, 154.220 820.894 C 153.708 821.227, 152.978 823.188, 152.599 825.250 C 152.220 827.313, 151.480 829, 150.955 829 C 150.430 829, 150 830.098, 150 831.441 C 150 832.784, 149.590 834.136, 149.088 834.446 C 148.587 834.755, 144.166 830.170, 139.265 824.255 C 74.897 746.573, 37.683 656.491, 27.826 554.500 C 26.206 537.736, 26.206 487.264, 27.826 470.500 C 35.583 390.234, 60.190 317.585, 101.783 252.145 L 110.271 238.789 105.999 225.145 C 103.650 217.640, 101.409 210.894, 101.020 210.153 C 100.522 209.207, 99.264 210.246, 96.783 213.653" stroke="none" fill="#3c4785" fill-rule="evenodd"/></svg>